<svg width="25" height="25" viewBox="0 0 9 9" fill="none" xmlns="http://www.w3.org/2000/svg">
<path d="M4.36213 0.422683C4.42377 0.232957 4.69218 0.232958 4.75383 0.422683L5.62136 3.09268C5.64893 3.17753 5.728 3.23497 5.81721 3.23497H8.62461C8.8241 3.23497 8.90705 3.49025 8.74566 3.6075L6.47442 5.25765C6.40225 5.31009 6.37204 5.40304 6.39961 5.48789L7.26715 8.15788C7.32879 8.34761 7.11164 8.50538 6.95025 8.38812L4.67902 6.73797C4.60684 6.68553 4.50911 6.68553 4.43693 6.73797L2.1657 8.38812C2.00431 8.50538 1.78716 8.34761 1.84881 8.15788L2.71634 5.48789C2.74391 5.40304 2.71371 5.31009 2.64153 5.25765L0.3703 3.6075C0.20891 3.49025 0.291854 3.23497 0.491343 3.23497H3.29874C3.38796 3.23497 3.46702 3.17753 3.49459 3.09268L4.36213 0.422683Z" fill="#F1CC4A"/>
</svg>
