<svg width="8" height="7" viewBox="0 0 8 7" fill="none" xmlns="http://www.w3.org/2000/svg">
<g clip-path="url(#clip0_5_159)">
<path d="M2.42487 6.96803V2.79981H1.02694V6.96803H2.42487ZM1.72608 2.23037C2.21357 2.23037 2.517 1.9103 2.517 1.51032C2.50792 1.10132 2.21358 0.790131 1.73533 0.790131C1.25716 0.790131 0.944458 1.10132 0.944458 1.51032C0.944458 1.91032 1.24782 2.23037 1.71696 2.23037H1.72604H1.72608ZM3.19862 6.96803H4.59655V4.64029C4.59655 4.51572 4.60563 4.39127 4.64255 4.30222C4.74361 4.05331 4.97362 3.79552 5.35979 3.79552C5.86564 3.79552 6.06801 4.17776 6.06801 4.7381V6.968H7.46586V4.57798C7.46586 3.29767 6.77619 2.70195 5.85644 2.70195C5.10231 2.70195 4.7712 3.11972 4.58725 3.40425H4.59658V2.79973H3.19865C3.21699 3.19085 3.19865 6.96795 3.19865 6.96795L3.19862 6.96803Z" fill="white"/>
</g>
<defs>
<clipPath id="clip0_5_159">
<rect width="6.58976" height="6.1779" fill="white" transform="translate(0.961731 0.790394)"/>
</clipPath>
</defs>
</svg>
