<svg width="9" height="6" viewBox="0 0 9 6" fill="none" xmlns="http://www.w3.org/2000/svg">
<g clip-path="url(#clip0_5_154)">
<path d="M8.10314 0.904633C7.82845 1.0218 7.5371 1.0987 7.23876 1.13279C7.54951 0.953465 7.78812 0.669494 7.90047 0.331147C7.60506 0.49993 7.28186 0.618849 6.94483 0.682765C6.67029 0.401167 6.27919 0.225179 5.84632 0.225179C5.01518 0.225179 4.34132 0.873954 4.34132 1.67414C4.34132 1.78772 4.35464 1.89829 4.38029 2.00437C3.12954 1.94393 2.02063 1.36707 1.27834 0.490416C1.14883 0.704422 1.07461 0.953354 1.07461 1.21887C1.07461 1.72159 1.34032 2.16508 1.74412 2.42493C1.50513 2.41773 1.2714 2.35558 1.06244 2.24368C1.06235 2.24975 1.06235 2.25582 1.06235 2.26191C1.06235 2.96396 1.5811 3.54961 2.26955 3.68273C2.04793 3.74076 1.81547 3.74925 1.58993 3.70756C1.78142 4.28323 2.33723 4.70213 2.99575 4.71386C2.4807 5.10247 1.83177 5.33413 1.12671 5.33413C1.00521 5.33413 0.88544 5.32726 0.7677 5.31388C1.43371 5.72501 2.22476 5.96489 3.07464 5.96489C5.84282 5.96489 7.35653 3.75694 7.35653 1.84218C7.35653 1.77933 7.3551 1.71684 7.35217 1.65471C7.6468 1.44964 7.9011 1.19564 8.10314 0.904633Z" fill="white"/>
</g>
<defs>
<clipPath id="clip0_5_154">
<rect width="7.41348" height="5.76604" fill="white" transform="translate(0.78067 0.202393)"/>
</clipPath>
</defs>
</svg>
